<svg width="20" height="17" viewBox="0 0 20 17" fill="none" xmlns="http://www.w3.org/2000/svg">
<g id="Group">
<path id="Vector" d="M19.333 8.32031C19.333 8.76329 19.0038 9.12939 18.5767 9.18733L18.458 9.19531L0.958008 9.19531C0.474759 9.19531 0.0830085 8.80356 0.0830085 8.32031C0.0830085 7.87733 0.412188 7.51124 0.839276 7.4533L0.958008 7.44531L18.458 7.44531C18.9413 7.44531 19.333 7.83706 19.333 8.32031Z" fill="#212121"/>
<path id="Vector_2" d="M8.63399 14.7286C8.97643 15.0696 8.97762 15.6236 8.63665 15.9661C8.32668 16.2774 7.84063 16.3067 7.49754 16.0532L7.39922 15.9687L0.340883 8.94072C0.0286398 8.62982 0.000235558 8.14202 0.255682 7.79894L0.340832 7.70067L7.39917 0.671506C7.74158 0.330505 8.2956 0.331652 8.6366 0.674068C8.9466 0.985355 8.97383 1.47152 8.71896 1.81354L8.63404 1.9115L2.19867 8.32102L8.63399 14.7286Z" fill="#212121"/>
</g>
</svg>
