<svg width="31" height="31" viewBox="0 0 31 31" fill="none" xmlns="http://www.w3.org/2000/svg">
<path fill-rule="evenodd" clip-rule="evenodd" d="M22.3029 0.932064C24.4007 0.80095 26.4695 1.52936 28.0283 2.95705C29.456 4.51586 30.1844 6.58455 30.0678 8.69695V22.3037C30.199 24.4161 29.456 26.4848 28.0428 28.0436C26.484 29.4713 24.4007 30.1997 22.3029 30.0686H8.69603C6.58362 30.1997 4.51491 29.4713 2.95609 28.0436C1.52839 26.4848 0.799973 24.4161 0.931088 22.3037V8.69695C0.799973 6.58455 1.52839 4.51586 2.95609 2.95705C4.51491 1.52936 6.58362 0.80095 8.69603 0.932064H22.3029ZM14.013 22.5663L23.8175 12.7327C24.7062 11.8295 24.7062 10.3726 23.8175 9.48398L21.9236 7.5901C21.0204 6.68687 19.5635 6.68687 18.6603 7.5901L17.6842 8.58075C17.5385 8.72643 17.5385 8.97409 17.6842 9.11977C17.6842 9.11977 20.0006 11.4216 20.0443 11.4798C20.2046 11.6546 20.3065 11.8877 20.3065 12.15C20.3065 12.6744 19.8841 13.1115 19.345 13.1115C19.0974 13.1115 18.8643 13.0095 18.704 12.8492L16.2711 10.4309C16.1545 10.3144 15.9506 10.3144 15.834 10.4309L8.88493 17.38C8.40417 17.8607 8.12737 18.5017 8.1128 19.1864L8.02539 22.6391C8.02539 22.8285 8.08366 23.0033 8.21478 23.1344C8.3459 23.2656 8.52072 23.3384 8.71011 23.3384H12.1337C12.833 23.3384 13.5031 23.0616 14.013 22.5663Z" fill="#01B763"/>
</svg>
