<svg width="18" height="16" viewBox="0 0 18 16" fill="none" xmlns="http://www.w3.org/2000/svg">
<path fill-rule="evenodd" clip-rule="evenodd" d="M13.1162 0.100098C14.2337 0.100098 15.3087 0.541764 16.0995 1.33426C16.8912 2.1251 17.3337 3.19176 17.3337 4.30843V10.8918C17.3337 13.2168 15.442 15.1001 13.1162 15.1001H4.88366C2.55783 15.1001 0.666992 13.2168 0.666992 10.8918V4.30843C0.666992 1.98343 2.54949 0.100098 4.88366 0.100098H13.1162ZM14.442 5.5501L14.5087 5.48343C14.7078 5.24177 14.7078 4.89177 14.4995 4.6501C14.3837 4.52593 14.2245 4.4501 14.0587 4.43343C13.8837 4.42426 13.717 4.48343 13.5912 4.6001L9.83366 7.6001C9.35033 8.00093 8.65783 8.00093 8.16699 7.6001L4.41699 4.6001C4.15783 4.40843 3.79949 4.43343 3.58366 4.65843C3.35866 4.88343 3.33366 5.24177 3.52449 5.49177L3.63366 5.6001L7.42533 8.55843C7.89199 8.9251 8.45783 9.1251 9.05033 9.1251C9.64116 9.1251 10.217 8.9251 10.6828 8.55843L14.442 5.5501Z" fill="#212121"/>
</svg>
