<svg width="18" height="16" viewBox="0 0 18 16" fill="none" xmlns="http://www.w3.org/2000/svg">
<g id="Group">
<path id="Exclude" fill-rule="evenodd" clip-rule="evenodd" d="M13.1162 0.899902C14.2337 0.899902 15.3087 1.34157 16.0995 2.13407C16.8912 2.9249 17.3337 3.99157 17.3337 5.10824V11.6916C17.3337 14.0166 15.442 15.8999 13.1162 15.8999H4.88366C2.55783 15.8999 0.666992 14.0166 0.666992 11.6916V5.10824C0.666992 2.78324 2.54949 0.899902 4.88366 0.899902H13.1162ZM14.442 6.3499L14.5087 6.28324C14.7078 6.04157 14.7078 5.69157 14.4995 5.4499C14.3837 5.32574 14.2245 5.2499 14.0587 5.23324C13.8837 5.22407 13.717 5.28324 13.5912 5.3999L9.83366 8.3999C9.35033 8.80074 8.65783 8.80074 8.16699 8.3999L4.41699 5.3999C4.15783 5.20824 3.79949 5.23324 3.58366 5.45824C3.35866 5.68324 3.33366 6.04157 3.52449 6.29157L3.63366 6.3999L7.42533 9.35824C7.89199 9.7249 8.45783 9.9249 9.05033 9.9249C9.64116 9.9249 10.217 9.7249 10.6828 9.35824L14.442 6.3499Z" fill="#9E9E9E"/>
</g>
</svg>
