<svg width="18" height="15" viewBox="0 0 18 15" fill="none" xmlns="http://www.w3.org/2000/svg">
<path fill-rule="evenodd" clip-rule="evenodd" d="M7.16972 10.3104C7.69011 10.6632 8.32434 10.8765 8.99923 10.8765C10.7881 10.8765 12.2436 9.40794 12.2436 7.60301C12.2436 6.92206 12.0321 6.28213 11.6825 5.75706L10.7962 6.65132C10.9426 6.93026 11.0239 7.25843 11.0239 7.60301C11.0239 8.72699 10.1132 9.64587 8.99923 9.64587C8.65772 9.64587 8.33247 9.56382 8.05601 9.41615L7.16972 10.3104ZM14.3577 3.05786C15.5367 4.14082 16.5368 5.60118 17.2849 7.35689C17.3499 7.51277 17.3499 7.69326 17.2849 7.84094C15.5448 11.9266 12.4468 14.3715 8.99923 14.3715H8.9911C7.42178 14.3715 5.91752 13.8546 4.59214 12.9112L3.0147 14.5028C2.89273 14.6258 2.73824 14.6833 2.58375 14.6833C2.42926 14.6833 2.26663 14.6258 2.1528 14.5028C1.94952 14.2977 1.91699 13.9695 2.07962 13.7316L2.10401 13.6988L14.13 1.56469L14.13 1.56469C14.1463 1.54828 14.1625 1.53187 14.1706 1.51547L14.1706 1.51546C14.1869 1.49906 14.2032 1.48265 14.2113 1.46624L14.9756 0.695044C15.2196 0.457121 15.6017 0.457121 15.8375 0.695044C16.0815 0.932967 16.0815 1.32677 15.8375 1.56469L14.3577 3.05786ZM5.74896 7.60621C5.74896 7.81952 5.77336 8.03283 5.80588 8.22973L2.79735 11.2653C1.98424 10.3136 1.27683 9.16502 0.715779 7.84413C0.65073 7.69646 0.65073 7.51596 0.715779 7.36008C2.45585 3.27437 5.55381 0.837715 8.99329 0.837715H9.00142C10.1642 0.837715 11.2944 1.11666 12.3352 1.64173L9.61939 4.38195C9.42424 4.34913 9.21283 4.32452 9.00142 4.32452C7.20444 4.32452 5.74896 5.79308 5.74896 7.60621Z" fill="#9E9E9E"/>
</svg>
