<svg width="18" height="15" viewBox="0 0 18 15" fill="none" xmlns="http://www.w3.org/2000/svg">
<path fill-rule="evenodd" clip-rule="evenodd" d="M7.16972 10.1102C7.69011 10.463 8.32434 10.6763 8.99923 10.6763C10.7881 10.6763 12.2436 9.20775 12.2436 7.40282C12.2436 6.72187 12.0321 6.08193 11.6825 5.55686L10.7962 6.45113C10.9426 6.73007 11.0239 7.05824 11.0239 7.40282C11.0239 8.5268 10.1132 9.44567 8.99923 9.44567C8.65772 9.44567 8.33247 9.36363 8.05601 9.21595L7.16972 10.1102ZM14.3577 2.85767C15.5367 3.94063 16.5368 5.40098 17.2849 7.15669C17.3499 7.31257 17.3499 7.49306 17.2849 7.64074C15.5448 11.7265 12.4468 14.1713 8.99923 14.1713H8.9911C7.42178 14.1713 5.91752 13.6544 4.59214 12.711L3.0147 14.3026C2.89273 14.4256 2.73824 14.4831 2.58375 14.4831C2.42926 14.4831 2.26663 14.4256 2.1528 14.3026C1.94952 14.0975 1.91699 13.7693 2.07962 13.5314L2.10401 13.4986L14.13 1.3645L14.13 1.36449C14.1463 1.34809 14.1625 1.33168 14.1706 1.31527L14.1706 1.31527C14.1869 1.29886 14.2032 1.28245 14.2113 1.26605L14.9756 0.494848C15.2196 0.256926 15.6017 0.256926 15.8375 0.494848C16.0815 0.732771 16.0815 1.12657 15.8375 1.3645L14.3577 2.85767ZM5.74896 7.40602C5.74896 7.61933 5.77336 7.83264 5.80588 8.02954L2.79735 11.0651C1.98424 10.1134 1.27683 8.96482 0.715779 7.64394C0.65073 7.49626 0.65073 7.31577 0.715779 7.15989C2.45585 3.07418 5.55381 0.63752 8.99329 0.63752H9.00142C10.1642 0.63752 11.2944 0.916464 12.3352 1.44154L9.61939 4.18175C9.42424 4.14893 9.21283 4.12432 9.00142 4.12432C7.20444 4.12432 5.74896 5.59288 5.74896 7.40602Z" fill="#212121"/>
</svg>
