<svg width="229" height="237" viewBox="0 0 229 237" fill="none" xmlns="http://www.w3.org/2000/svg">
<path d="M59.1246 29.356C74.0621 20.256 95.3933 15.4185 117.612 16.156C139.8 16.8998 161.943 23.1748 178.6 35.2623C180.277 36.479 182.369 36.9794 184.416 36.6536C186.462 36.3277 188.295 35.2023 189.512 33.5248C190.729 31.8473 191.229 29.7552 190.903 27.7087C190.577 25.6622 189.452 23.829 187.775 22.6123C168.025 8.28729 142.65 1.36229 118.137 0.543538C93.6683 -0.275212 69.1371 4.96229 50.9996 16.0185C50.0894 16.5349 49.2923 17.2288 48.6555 18.0591C48.0187 18.8894 47.5551 19.8392 47.2924 20.8521C47.0296 21.8649 46.9731 22.9203 47.126 23.9554C47.2789 24.9906 47.6382 25.9845 48.1826 26.8781C48.727 27.7718 49.4454 28.547 50.2951 29.1577C51.1448 29.7684 52.1085 30.2021 53.1291 30.4332C54.1496 30.6644 55.2062 30.6881 56.2361 30.5031C57.2661 30.318 58.2483 29.928 59.1246 29.356ZM124.731 36.781C123.712 36.6604 122.679 36.7416 121.691 37.0201C120.704 37.2986 119.781 37.7688 118.975 38.404C118.169 39.0393 117.496 39.827 116.995 40.7222C116.494 41.6175 116.173 42.6027 116.053 43.6217C115.932 44.6406 116.013 45.6734 116.292 46.661C116.57 47.6486 117.04 48.5716 117.676 49.3775C118.311 50.1833 119.099 50.8561 119.994 51.3575C120.889 51.859 121.874 52.1791 122.893 52.2998C171.825 58.1123 203.668 95.8998 212.993 149.037C213.383 151.048 214.546 152.826 216.233 153.987C217.92 155.148 219.996 155.601 222.014 155.247C224.031 154.893 225.829 153.761 227.02 152.094C228.21 150.428 228.699 148.361 228.381 146.337C218.231 88.4935 182.412 43.631 124.731 36.781ZM82.8433 99.781C58.9871 118.875 45.3308 160.219 71.4371 212.969C72.3401 214.823 72.4731 216.959 71.807 218.911C71.141 220.864 69.73 222.473 67.8819 223.389C66.0337 224.305 63.8984 224.453 61.9417 223.8C59.985 223.148 58.3657 221.748 57.4371 219.906C28.7871 162.025 42.3121 112.2 73.0808 87.581C88.3246 75.381 107.593 69.6748 127.031 72.7248C146.531 75.7873 165.437 87.5498 180.225 108.856C180.83 109.698 181.262 110.651 181.495 111.662C181.728 112.672 181.758 113.719 181.583 114.741C181.407 115.762 181.03 116.739 180.473 117.614C179.916 118.489 179.191 119.244 178.34 119.835C177.488 120.427 176.527 120.843 175.513 121.059C174.499 121.275 173.452 121.288 172.433 121.095C171.415 120.903 170.444 120.51 169.579 119.939C168.714 119.368 167.971 118.63 167.393 117.769C154.681 99.456 139.318 90.4748 124.606 88.1623C109.818 85.8373 94.9183 90.1185 82.8433 99.781ZM112.081 225.469C96.0871 193.156 91.2058 165.844 94.1121 147.762C95.5496 138.8 98.7996 132.681 102.881 129.006C106.825 125.462 112.318 123.494 119.95 124.212C130.093 125.175 134.843 128.512 137.775 132.494C141.162 137.094 142.95 143.556 144.987 152.762L145.6 155.556C149.381 172.956 154.381 195.912 178.637 213.4C180.318 214.611 182.411 215.106 184.456 214.774C186.502 214.442 188.332 213.312 189.543 211.631C190.755 209.95 191.249 207.857 190.918 205.812C190.586 203.766 189.455 201.936 187.775 200.725C168.462 186.8 164.587 169.175 160.737 151.637L160.237 149.387C158.3 140.625 156 130.887 150.356 123.231C144.256 114.95 135.025 109.95 121.425 108.662C110.112 107.587 100.093 110.506 92.4433 117.381C84.9371 124.131 80.5058 133.944 78.6808 145.287C75.0683 167.819 81.3246 198.55 98.0808 232.4C99.0328 234.198 100.649 235.554 102.585 236.179C104.522 236.804 106.625 236.649 108.449 235.747C110.273 234.845 111.673 233.267 112.351 231.348C113.029 229.43 112.932 227.323 112.081 225.475V225.469ZM39.0496 36.2748C40.42 37.8281 41.1175 39.8622 40.9886 41.9296C40.8596 43.9971 39.9149 45.9287 38.3621 47.2998C28.3871 56.106 21.6558 64.9685 14.9683 76.5935C14.4562 77.4828 13.7739 78.2625 12.9604 78.8881C12.1469 79.5138 11.2182 79.973 10.2272 80.2397C9.2362 80.5064 8.20241 80.5752 7.18481 80.4424C6.16722 80.3095 5.18575 79.9776 4.29646 79.4654C3.40716 78.9532 2.62745 78.271 2.00184 77.4575C1.37623 76.644 0.916979 75.7152 0.650301 74.7243C0.383623 73.7333 0.314743 72.6995 0.447595 71.6819C0.580446 70.6643 0.912428 69.6828 1.42458 68.7935C8.77458 56.0248 16.5246 45.731 28.0246 35.5873C29.5779 34.2168 31.612 33.5194 33.6794 33.6483C35.7469 33.7772 37.6785 34.722 39.0496 36.2748ZM192.475 146.494C192.127 144.473 190.999 142.67 189.334 141.474C187.669 140.278 185.601 139.784 183.575 140.099C181.549 140.414 179.729 141.512 178.506 143.158C177.282 144.803 176.755 146.863 177.037 148.894C180.225 169.375 190.818 182.312 203.631 191.537C204.464 192.136 205.407 192.566 206.406 192.8C207.405 193.035 208.44 193.071 209.453 192.905C210.466 192.74 211.436 192.377 212.308 191.836C213.181 191.296 213.938 190.589 214.537 189.756C215.136 188.923 215.565 187.98 215.8 186.981C216.035 185.982 216.071 184.947 215.905 183.934C215.74 182.921 215.377 181.951 214.836 181.079C214.296 180.206 213.589 179.449 212.756 178.85C202.6 171.537 194.893 162.012 192.475 146.494ZM116.987 146.15C118.011 146.073 119.039 146.199 120.014 146.52C120.989 146.841 121.891 147.351 122.669 148.021C123.447 148.69 124.085 149.507 124.547 150.423C125.009 151.34 125.286 152.339 125.362 153.362C127.268 178.831 136.593 200.406 151.575 217.55C152.272 218.319 152.809 219.219 153.154 220.198C153.499 221.176 153.646 222.214 153.586 223.25C153.526 224.286 153.26 225.3 152.803 226.232C152.347 227.164 151.709 227.996 150.928 228.679C150.146 229.362 149.237 229.883 148.252 230.21C147.267 230.538 146.227 230.666 145.192 230.587C144.157 230.508 143.148 230.223 142.225 229.75C141.301 229.277 140.481 228.625 139.812 227.831C122.55 208.081 111.937 183.287 109.781 154.525C109.704 153.502 109.83 152.474 110.15 151.499C110.471 150.524 110.98 149.623 111.649 148.845C112.319 148.067 113.134 147.429 114.05 146.966C114.966 146.504 115.964 146.227 116.987 146.15ZM92.4746 54.8998C93.4205 54.5017 94.2787 53.9212 95.0003 53.1915C95.7219 52.4617 96.2927 51.597 96.6801 50.6466C97.0675 49.6963 97.2639 48.6789 97.2581 47.6527C97.2524 46.6264 97.0445 45.6113 96.6464 44.6654C96.2484 43.7195 95.6679 42.8612 94.9381 42.1396C94.2084 41.418 93.3436 40.8473 92.3933 40.4599C91.4429 40.0725 90.4256 39.8761 89.3993 39.8818C88.3731 39.8876 87.358 40.0955 86.4121 40.4935C30.3371 64.0748 2.38083 116.831 9.81208 179.85C9.93191 180.869 10.2513 181.854 10.7519 182.75C11.2526 183.645 11.9247 184.433 12.73 185.069C13.5352 185.705 14.4578 186.176 15.4451 186.455C16.4324 186.734 17.465 186.816 18.484 186.697C19.5029 186.577 20.4883 186.257 21.3839 185.757C22.2794 185.256 23.0676 184.584 23.7034 183.779C24.3392 182.973 24.8101 182.051 25.0894 181.064C25.3686 180.076 25.4507 179.044 25.3308 178.025C18.6246 121.15 43.4996 75.4935 92.4746 54.8873V54.8998Z" fill="url(#paint0_linear_929_21126)"/>
<defs>
<linearGradient id="paint0_linear_929_21126" x1="228.476" y1="236.557" x2="-44.3454" y2="160.136" gradientUnits="userSpaceOnUse">
<stop stop-color="#01B763"/>
<stop offset="1" stop-color="#14E685"/>
</linearGradient>
</defs>
</svg>
