<svg width="61" height="61" viewBox="0 0 61 61" fill="none" xmlns="http://www.w3.org/2000/svg">
<g id="Type=Logo Default, Component=Logo">
<path id="Vector" d="M52.3996 7.17251L52.3143 6.27744C52.2148 5.23296 51.1696 4.55254 50.1742 4.88433L49.323 5.16807C44.5296 6.83349 39.4109 7.34456 34.3829 6.65975C29.0995 5.83982 23.6916 6.56842 18.8135 8.75742C16.2275 9.85857 13.958 11.5891 12.2116 13.7914C10.4653 15.9937 9.2975 18.5978 8.81465 21.3667C8.42436 23.5966 8.39908 25.8657 8.73139 28.0871C8.94939 29.5443 10.8361 29.679 11.5715 28.4022C11.861 27.8996 12.1619 27.4033 12.4739 26.9139C14.8424 23.4291 18.1243 20.6633 21.96 18.9195C22.0953 18.8577 22.231 18.7972 22.3671 18.7378C23.6033 18.1988 24.0301 19.9435 22.8923 20.6675C21.3015 21.6671 19.8447 22.8654 18.5572 24.2336C17.3257 25.6011 16.24 27.093 15.3174 28.6853C13.5846 32.0136 11.4772 35.5676 10.7838 39.2554C9.68379 43.6554 10.2842 56.0172 11.6582 56.3009C13.1314 56.0172 12.9838 51.3554 13.5842 48.3172C14.2336 45.031 15.3057 43.0194 16.8842 42.4371C17.6181 42.1663 20.168 42.1266 20.8314 42.4371C24.1314 43.0194 23.7568 43.0634 27.0178 43.0194C30.4451 43.017 33.8371 42.3275 36.9933 40.9916C54.7303 33.4167 52.3996 8.22135 52.3996 7.17251Z" fill="url(#paint0_linear_1673_8070)"/>
</g>
<defs>
<linearGradient id="paint0_linear_1673_8070" x1="52.5" y1="56.3011" x2="-0.976083" y2="43.0545" gradientUnits="userSpaceOnUse">
<stop stop-color="#01B763"/>
<stop offset="1" stop-color="#14E685"/>
</linearGradient>
</defs>
</svg>
