<svg width="16" height="17" viewBox="0 0 16 17" fill="none" xmlns="http://www.w3.org/2000/svg">
<path fill-rule="evenodd" clip-rule="evenodd" d="M12.6026 4.56308V5.84086C14.0379 6.28887 15.0837 7.58819 15.0837 9.14008V13.2542C15.0837 15.1754 13.4909 16.7331 11.5272 16.7331H4.47432C2.50979 16.7331 0.916992 15.1754 0.916992 13.2542V9.14008C0.916992 7.58819 1.96362 6.28887 3.39806 5.84086V4.56308C3.40653 2.07873 5.46421 0.0664062 7.98763 0.0664062C10.5449 0.0664062 12.6026 2.07873 12.6026 4.56308ZM8.00456 1.51561C9.72353 1.51561 11.1207 2.882 11.1207 4.56308V5.66116H4.87993V4.54651C4.8884 2.87372 6.28559 1.51561 8.00456 1.51561ZM8.74126 12.1122C8.74126 12.518 8.41101 12.8409 7.99609 12.8409C7.58964 12.8409 7.25939 12.518 7.25939 12.1122V10.2738C7.25939 9.87627 7.58964 9.5533 7.99609 9.5533C8.41101 9.5533 8.74126 9.87627 8.74126 10.2738V12.1122Z" fill="#212121"/>
</svg>
