<svg width="20" height="20" viewBox="0 0 20 20" fill="none" xmlns="http://www.w3.org/2000/svg">
<path opacity="0.4" d="M10.8139 2.59472L12.6693 6.32328C12.806 6.59342 13.0669 6.78101 13.3678 6.8227L17.5354 7.42968C17.7787 7.46386 17.9996 7.59226 18.1488 7.78819C18.2964 7.98162 18.3597 8.22675 18.3239 8.46771C18.2947 8.66781 18.2005 8.8529 18.0563 8.99464L15.0365 11.922C14.8156 12.1262 14.7156 12.4289 14.7689 12.7249L15.5124 16.8403C15.5916 17.3372 15.2624 17.8058 14.7689 17.9C14.5655 17.9325 14.3572 17.8983 14.1738 17.805L10.4563 15.8681C10.1804 15.7289 9.85454 15.7289 9.57865 15.8681L5.86118 17.805C5.40442 18.0476 4.83846 17.8825 4.58424 17.4323C4.49005 17.253 4.45671 17.0487 4.48755 16.8495L5.23105 12.7332C5.28439 12.4381 5.18354 12.1337 4.96349 11.9295L1.94367 9.00381C1.58443 8.65697 1.57359 8.08584 1.9195 7.72649C1.927 7.71899 1.93534 7.71065 1.94367 7.70232C2.08704 7.55641 2.27541 7.46386 2.47879 7.43968L6.64635 6.83187C6.94641 6.78935 7.2073 6.60342 7.34483 6.33162L9.13355 2.59472C9.29275 2.27456 9.62282 2.07529 9.98123 2.08363H10.0929C10.4038 2.12114 10.6747 2.31374 10.8139 2.59472Z" fill="#01B763"/>
<path d="M9.99367 15.7643C9.83225 15.7693 9.67499 15.8127 9.53355 15.8902L5.83426 17.8227C5.38162 18.0387 4.83996 17.871 4.58619 17.4382C4.49217 17.2614 4.45805 17.0587 4.48967 16.8602L5.22853 12.7527C5.27845 12.4541 5.17861 12.1505 4.96144 11.9403L1.94027 9.01544C1.58166 8.66432 1.575 8.08801 1.92613 7.72855C1.93112 7.72355 1.93528 7.71938 1.94027 7.71521C2.08339 7.57342 2.2681 7.48001 2.46696 7.45082L6.63802 6.83699C6.94005 6.79862 7.20215 6.61013 7.33527 6.33657L9.14831 2.55264C9.32054 2.24739 9.65087 2.06557 10.0003 2.08476C9.99367 2.33246 9.99367 15.5958 9.99367 15.7643Z" fill="#01B763"/>
</svg>
