<svg width="21" height="22" viewBox="0 0 21 22" fill="none" xmlns="http://www.w3.org/2000/svg">
<path fill-rule="evenodd" clip-rule="evenodd" d="M14.9128 20.5003H6.56496C3.4986 20.5003 1.1462 19.3927 1.81439 14.9351L2.59242 8.89387C3.00432 6.66962 4.42309 5.81836 5.66794 5.81836H15.8464C17.1096 5.81836 18.446 6.73369 18.9219 8.89387L19.7 14.9351C20.2675 18.8893 17.9792 20.5003 14.9128 20.5003Z" stroke="#9E9E9E" stroke-width="1.5" stroke-linecap="round" stroke-linejoin="round"/>
<path d="M15.0497 5.59873C15.0497 3.21265 13.1154 1.27836 10.7293 1.27836V1.27836C9.5803 1.27349 8.47669 1.72652 7.6625 2.53727C6.84831 3.34803 6.39061 4.44971 6.39063 5.59873H6.39062" stroke="#9E9E9E" stroke-width="1.5" stroke-linecap="round" stroke-linejoin="round"/>
<path d="M13.6954 10.1022H13.6496" stroke="#9E9E9E" stroke-width="1.5" stroke-linecap="round" stroke-linejoin="round"/>
<path d="M7.86434 10.1022H7.81857" stroke="#9E9E9E" stroke-width="1.5" stroke-linecap="round" stroke-linejoin="round"/>
</svg>
